<svg width="24" height="26" viewBox="0 0 24 26" fill="none" xmlns="http://www.w3.org/2000/svg">
<path d="M19.55 15.568C19.5353 15.6946 19.4762 15.8111 19.3839 15.8953C19.2917 15.9796 19.1728 16.0256 19.05 16.0247H17C16.8674 16.0247 16.7402 16.0794 16.6465 16.1767C16.5527 16.274 16.5 16.406 16.5 16.5437V24.8473C16.5 24.9849 16.5527 25.1169 16.6465 25.2142C16.7402 25.3116 16.8674 25.3662 17 25.3662H19.5C21.9853 25.3662 24 23.3506 24 20.8653C24 19.5678 24 18.468 24 18.3601V14.4678C24 14.3046 24 9.41316 24 5.45521C24 2.69378 21.7623 0.455445 19.0009 0.455445C15.7727 0.455446 12.1461 0.455447 12 0.455447H12.2652C12.1175 0.455447 8.32753 0.455447 4.99948 0.455448C2.23806 0.455448 3.54736e-05 2.69379 3.75564e-05 5.45521C4.05417e-05 9.41316 4.42061e-05 14.3046 4.42061e-05 14.4678V17.5816C4.42061e-05 17.6899 3.73722e-05 18.9164 2.90783e-05 20.3652C1.32694e-05 23.1266 2.24009 25.3662 5.00153 25.3662C5.54955 25.3662 5.93566 25.3662 5.99999 25.3662H12C12.1326 25.3662 12.2598 25.3116 12.3536 25.2142C12.4473 25.1169 12.5 24.9849 12.5 24.8473V16.5437C12.5 16.406 12.4473 16.274 12.3536 16.1767C12.2598 16.0794 12.1326 16.0247 12 16.0247H10C9.86742 16.0247 9.74024 15.97 9.64647 15.8727C9.5527 15.7754 9.50003 15.6434 9.50003 15.5057V12.3919C9.50003 12.2542 9.5527 12.1222 9.64647 12.0249C9.74024 11.9276 9.86742 11.8729 10 11.8729H12C12.1326 11.8729 12.2598 11.8182 12.3536 11.7209C12.4473 11.6236 12.5 11.4916 12.5 11.3539V9.9942C12.5 8.42785 13.0995 6.92566 14.1666 5.81808C15.2337 4.7105 16.6809 4.08827 18.19 4.08827H19.5C19.6326 4.08827 19.7598 4.14295 19.8536 4.24028C19.9473 4.3376 20 4.46961 20 4.60725V7.72109C20 7.85874 19.9473 7.99074 19.8536 8.08807C19.7598 8.18539 19.6326 8.24007 19.5 8.24007H18.19C17.7418 8.24007 17.3119 8.42488 16.995 8.75384C16.6781 9.0828 16.5 9.52898 16.5 9.9942V11.3539C16.5 11.4916 16.5527 11.6236 16.6465 11.7209C16.7402 11.8182 16.8674 11.8729 17 11.8729H19.43C19.501 11.8724 19.5714 11.8875 19.6363 11.9174C19.7012 11.9473 19.7593 11.9912 19.8066 12.0462C19.8539 12.1012 19.8894 12.166 19.9107 12.2364C19.9319 12.3067 19.9385 12.3809 19.93 12.4541L19.55 15.568Z" fill="#4968AD"/>
</svg>
