<svg width="24" height="24" viewBox="0 0 24 24" fill="none" xmlns="http://www.w3.org/2000/svg">
<path d="M19.55 14.56C19.5353 14.6819 19.4762 14.7942 19.3839 14.8753C19.2917 14.9565 19.1728 15.0009 19.05 15H17C16.8674 15 16.7402 15.0527 16.6465 15.1464C16.5527 15.2402 16.5 15.3674 16.5 15.5V23.5C16.5 23.6326 16.5527 23.7598 16.6465 23.8535C16.7402 23.9473 16.8674 24 17 24H19.5C21.9853 24 24 21.9852 24 19.4999C24 18.3222 24 17.3494 24 17.25V13.5C24 13.3453 24 8.77812 24 4.99855C24 2.23712 21.7623 4.14726e-07 19.0009 9.21572e-07C15.7727 1.51409e-06 12.1461 2.1737e-06 12 2.1737e-06H12.2652C12.1175 2.1737e-06 8.32753 2.68361e-06 4.99948 3.13526e-06C2.23806 3.51002e-06 3.55373e-05 2.23713 3.76985e-05 4.99855C4.06567e-05 8.77813 4.42061e-05 13.3453 4.42061e-05 13.5V16.5C4.42061e-05 16.5997 3.79572e-05 17.6846 3.01583e-05 18.9998C1.37835e-05 21.7612 2.24009 24 5.00153 24C5.54955 24 5.93566 24 5.99999 24H12C12.1326 24 12.2598 23.9473 12.3536 23.8535C12.4473 23.7598 12.5 23.6326 12.5 23.5V15.5C12.5 15.3674 12.4473 15.2402 12.3536 15.1464C12.2598 15.0527 12.1326 15 12 15H10C9.86742 15 9.74024 14.9473 9.64647 14.8535C9.5527 14.7598 9.50003 14.6326 9.50003 14.5V11.5C9.50003 11.3674 9.5527 11.2402 9.64647 11.1464C9.74024 11.0527 9.86742 11 10 11H12C12.1326 11 12.2598 10.9473 12.3536 10.8535C12.4473 10.7598 12.5 10.6326 12.5 10.5V9.18998C12.5 7.6809 13.0995 6.23364 14.1666 5.16656C15.2337 4.09948 16.6809 3.5 18.19 3.5H19.5C19.6326 3.5 19.7598 3.55268 19.8536 3.64644C19.9473 3.74021 20 3.86739 20 4V6.99999C20 7.1326 19.9473 7.25978 19.8536 7.35354C19.7598 7.44731 19.6326 7.49999 19.5 7.49999H18.19C17.7418 7.49999 17.3119 7.67804 16.995 7.99498C16.6781 8.31191 16.5 8.74177 16.5 9.18998V10.5C16.5 10.6326 16.5527 10.7598 16.6465 10.8535C16.7402 10.9473 16.8674 11 17 11H19.43C19.501 10.9995 19.5714 11.0141 19.6363 11.0429C19.7012 11.0717 19.7593 11.114 19.8066 11.167C19.8539 11.2199 19.8894 11.2824 19.9107 11.3502C19.9319 11.4179 19.9385 11.4895 19.93 11.56L19.55 14.56Z" fill="#4968AD"/>
</svg>
