<svg xmlns="http://www.w3.org/2000/svg" width="180" height="40" viewBox="0 0 180 40">
  <path fill="#EFEFEF" fill-rule="evenodd" d="M160.512,11.4628 L175.534,11.4628 C177.005,11.4112 179.947,11.9584 179.947,14.56 L179.947,23.5419 C179.896,24.5485 178.941,26.5617 175.534,26.5617 L160.512,26.5617 L160.512,11.4628 Z M63.4927,11.4628 L68.1385,11.4628 L68.1385,22.9999 L77.9721,22.9999 L77.9721,26.5617 L63.4927,26.5617 L63.4927,11.4628 Z M80.0627,11.4628 L96.4779,11.4628 L96.4779,15.0246 L84.7859,15.0246 L84.7859,17.5024 L95.781,17.5024 L95.781,20.5221 L84.7859,20.5221 L84.7859,22.9999 L96.4779,22.9999 L96.4779,26.5617 L80.0627,26.5617 L80.0627,11.4628 Z M137.051,11.4628 L144.639,11.4628 L153.776,22.6902 L153.776,11.4628 L158.112,11.4628 L158.112,26.5617 L150.601,26.5617 L141.62,15.4892 L141.62,26.5617 L137.051,26.5617 L137.051,11.4628 Z M164.926,15.257 L164.926,23 L174.682,23 C175.797,23 175.869,22.1741 175.766,21.7611 L175.766,16.341 C175.766,15.4118 175.043,15.2312 174.682,15.257 L164.926,15.257 Z M116.687,15.0247 L103.369,15.0247 C102.905,14.9989 101.975,15.2724 101.975,16.5733 L101.975,22.0708 C102.001,22.3805 102.316,23 103.369,23 L112.351,23 C112.687,23 113.358,22.8141 113.358,22.0708 L113.358,20.9093 C113.383,20.5996 113.218,19.9802 112.351,19.9802 L107.783,19.9802 L107.783,17.8121 L116.687,17.8121 L116.687,23 C116.635,24.1872 115.742,26.5617 112.583,26.5617 L103.369,26.5617 C101.717,26.6134 98.4136,25.9733 98.4136,23 L98.4136,15.7215 C98.362,14.4052 99.2809,11.4629 103.369,11.4629 C107.457,11.4629 113.951,11.5661 116.687,11.4629 L116.687,15.0247 Z M135.27,11.4629 L135.27,15.0247 L123.578,15.0247 L123.578,17.5024 L134.573,17.5024 L134.573,20.5222 L123.578,20.5222 L123.578,23 L135.27,23 L135.27,26.5617 L118.855,26.5617 L118.855,11.4629 L135.27,11.4629 Z M54.7111,15.0675 C48.207,31.2349 29.8561,38.4256 21.4937,40 C36.9797,34.8586 43.587,25.6238 44.955,21.6491 C49.9724,6.65865 36.7732,7.40198 29.5464,9.64745 L32.6436,16.5387 L19.7128,12.0478 C24.3586,8.33114 29.7529,5.6469 31.8693,4.76936 C55.47,-3.46919 56.9308,8.20209 54.7111,15.0675 Z M0.742469,24.9325 C7.24659,8.76507 25.5975,1.57441 33.9599,0 C18.4739,5.14135 11.8666,14.3762 10.4986,18.3509 C5.48118,33.3414 18.6804,32.598 25.9072,30.3526 L22.81,23.4613 L35.7408,27.9522 C31.095,31.6689 25.7007,34.3531 23.5843,35.2306 C-0.0163447,43.4692 -1.47719,31.7979 0.742469,24.9325 Z"/>
</svg>
