<svg width="26" height="27" viewBox="0 0 26 27" fill="none" xmlns="http://www.w3.org/2000/svg">
<path d="M11.3416 14.6598C9.64498 12.9632 8.36597 11.0635 7.51619 9.1363C7.33638 8.72881 7.44224 8.25172 7.75692 7.93704L8.94457 6.75084C9.9176 5.7778 9.9176 4.40163 9.06783 3.55186L7.36538 1.84941C6.23283 0.716863 4.39697 0.716863 3.26442 1.84941L2.31894 2.79489C1.2444 3.86944 0.79631 5.41962 1.08634 6.95676C1.8027 10.7459 4.00399 14.8947 7.55535 18.4461C11.1067 21.9975 15.2555 24.1988 19.0447 24.9151C20.5818 25.2051 22.132 24.7571 23.2066 23.6825L24.1506 22.7385C25.2831 21.6059 25.2831 19.7701 24.1506 18.6375L22.4496 16.9365C21.5998 16.0867 20.2222 16.0867 19.3739 16.9365L18.0644 18.2474C17.7497 18.5621 17.2726 18.668 16.8652 18.4882C14.9379 17.6369 13.0383 16.3565 11.3416 14.6598V14.6598Z" stroke="#1948C1" stroke-width="2" stroke-linecap="round" stroke-linejoin="round"/>
</svg>
