<svg width="24" height="27" viewBox="0 0 24 27" fill="none" xmlns="http://www.w3.org/2000/svg">
<path d="M19.55 16.0694C19.5353 16.204 19.4762 16.3279 19.3839 16.4175C19.2917 16.5071 19.1728 16.556 19.05 16.5551H17C16.8674 16.5551 16.7402 16.6132 16.6465 16.7167C16.5527 16.8202 16.5 16.9605 16.5 17.1069V25.9363C16.5 26.0826 16.5527 26.223 16.6465 26.3265C16.7402 26.4299 16.8674 26.4881 17 26.4881H19.5C21.9853 26.4881 24 24.4727 24 21.9874C24 20.4871 24 19.1609 24 19.0383V14.8995C24 14.7217 24 9.25739 24 4.99762C24 2.23619 21.7623 4.57721e-07 19.0009 1.01711e-06C15.7727 1.67105e-06 12.1461 2.39906e-06 12 2.39906e-06H12.2652C12.1175 2.39906e-06 8.32753 2.96182e-06 4.99948 3.4603e-06C2.23806 3.87391e-06 3.53706e-05 2.2362 3.73303e-05 4.99762C4.03532e-05 9.25739 4.42061e-05 14.7217 4.42061e-05 14.8995V18.2106C4.42061e-05 18.3335 3.64122e-05 19.8126 2.73695e-05 21.4873C1.2459e-05 24.2487 2.24009 26.4881 5.00152 26.4881C5.54954 26.4881 5.93566 26.4881 5.99999 26.4881H12C12.1326 26.4881 12.2598 26.4299 12.3536 26.3265C12.4473 26.223 12.5 26.0826 12.5 25.9363V17.1069C12.5 16.9605 12.4473 16.8202 12.3536 16.7167C12.2598 16.6132 12.1326 16.5551 12 16.5551H10C9.86742 16.5551 9.74024 16.4969 9.64647 16.3934C9.5527 16.2899 9.50003 16.1496 9.50003 16.0032V12.6922C9.50003 12.5458 9.5527 12.4055 9.64647 12.302C9.74024 12.1985 9.86742 12.1404 10 12.1404H12C12.1326 12.1404 12.2598 12.0822 12.3536 11.9787C12.4473 11.8753 12.5 11.7349 12.5 11.5885V10.1427C12.5 8.4772 13.0995 6.87989 14.1666 5.70218C15.2337 4.52448 16.6809 3.86285 18.19 3.86285H19.5C19.6326 3.86285 19.7598 3.92099 19.8536 4.02448C19.9473 4.12797 20 4.26833 20 4.41468V7.72569C20 7.87205 19.9473 8.01241 19.8536 8.1159C19.7598 8.21939 19.6326 8.27753 19.5 8.27753H18.19C17.7418 8.27753 17.3119 8.47404 16.995 8.82383C16.6781 9.17362 16.5 9.64804 16.5 10.1427V11.5885C16.5 11.7349 16.5527 11.8753 16.6465 11.9787C16.7402 12.0822 16.8674 12.1404 17 12.1404H19.43C19.501 12.1398 19.5714 12.1559 19.6363 12.1877C19.7012 12.2195 19.7593 12.2662 19.8066 12.3247C19.8539 12.3831 19.8894 12.4521 19.9107 12.5269C19.9319 12.6017 19.9385 12.6806 19.93 12.7584L19.55 16.0694Z" fill="white"/>
</svg>
