<svg width="26" height="28" viewBox="0 0 26 28" fill="none" xmlns="http://www.w3.org/2000/svg">
<path d="M11.3416 15.6337C9.64498 13.8726 8.36597 11.9009 7.51619 9.90052C7.33638 9.47757 7.44224 8.98238 7.75692 8.65576L8.94457 7.42453C9.9176 6.41457 9.9176 4.98617 9.06783 4.10415L7.36538 2.33709C6.23283 1.16156 4.39697 1.16156 3.26442 2.33709L2.31894 3.31846C1.2444 4.43378 0.79631 6.0428 1.08634 7.63827C1.8027 11.5712 4.00399 15.8775 7.55535 19.5637C11.1067 23.2498 15.2555 25.5346 19.0447 26.2782C20.5818 26.5792 22.132 26.1141 23.2066 24.9988L24.1506 24.0189C25.2831 22.8434 25.2831 20.9379 24.1506 19.7623L22.4496 17.9968C21.5998 17.1148 20.2222 17.1148 19.3739 17.9968L18.0644 19.3574C17.7497 19.6841 17.2726 19.7939 16.8652 19.6073C14.9379 18.7238 13.0383 17.3947 11.3416 15.6337V15.6337Z" stroke="#1948C1" stroke-width="2" stroke-linecap="round" stroke-linejoin="round"/>
</svg>
